<svg width="3840" height="302" viewBox="0 0 3840 302" fill="none" xmlns="http://www.w3.org/2000/svg">
<path d="M0 0.528319C113 -4.23868 213.333 24.0913 320 51.7283C426.667 79.3653 533.333 122.851 640 109.328C746.667 95.8057 853.333 25.275 960 19.7283C1066.67 14.1817 1173.33 73.619 1280 102.928C1386.67 132.238 1493.33 131.419 1600 128.528C1706.67 125.638 1811.5 115.728 1920 115.728V301.328C1813.33 301.328 1706.67 301.328 1600 301.328C1493.33 301.328 1386.67 301.328 1280 301.328C1173.33 301.328 1066.67 301.328 960 301.328C853.333 301.328 746.667 301.328 640 301.328C533.333 301.328 426.667 301.328 320 301.328C213.333 301.328 106.667 301.328 0 301.328V0.528319Z" fill="url(#paint0_linear_31_28)" fill-opacity="0.19"/>
<path d="M3840 0.528319C3727 -4.23868 3626.67 24.0913 3520 51.7283C3413.33 79.3653 3306.67 122.851 3200 109.328C3093.33 95.8057 2986.67 25.275 2880 19.7283C2773.33 14.1817 2666.67 73.619 2560 102.928C2453.33 132.238 2346.67 131.419 2240 128.528C2133.33 125.638 2028.5 115.728 1920 115.728V301.328C2026.67 301.328 2133.33 301.328 2240 301.328C2346.67 301.328 2453.33 301.328 2560 301.328C2666.67 301.328 2773.33 301.328 2880 301.328C2986.67 301.328 3093.33 301.328 3200 301.328C3306.67 301.328 3413.33 301.328 3520 301.328C3626.67 301.328 3733.33 301.328 3840 301.328V0.528319Z" fill="url(#paint1_linear_31_28)" fill-opacity="0.19"/>
<defs>
<linearGradient id="paint0_linear_31_28" x1="0" y1="150.928" x2="1920" y2="150.928" gradientUnits="userSpaceOnUse">
<stop stop-color="#99C4F4"/>
<stop offset="0.5" stop-color="#ADBCF7"/>
<stop offset="1" stop-color="#C0B4FA"/>
</linearGradient>
<linearGradient id="paint1_linear_31_28" x1="3840" y1="150.928" x2="1920" y2="150.928" gradientUnits="userSpaceOnUse">
<stop stop-color="#99C4F4"/>
<stop offset="0.5" stop-color="#ADBCF7"/>
<stop offset="1" stop-color="#C0B4FA"/>
</linearGradient>
</defs>
</svg>
