<svg width="3840" height="199" viewBox="0 0 3840 199" fill="none" xmlns="http://www.w3.org/2000/svg">
<path d="M0 0C95 0 213.333 10.8525 320 25.6C426.667 40.3475 533.333 64.4129 640 76.8C746.667 89.1871 853.333 89.8822 960 96C1066.67 102.118 1184.83 107.245 1291.5 115.2C1398.17 123.155 1514.83 117.732 1621.5 98.9999C1715 86.2997 1813 12.8 1920 12.8V198.4C1813.33 198.4 1706.67 198.4 1600 198.4C1493.33 198.4 1386.67 198.4 1280 198.4C1173.33 198.4 1066.67 198.4 960 198.4C853.333 198.4 746.667 198.4 640 198.4C533.333 198.4 426.667 198.4 320 198.4C213.333 198.4 106.667 198.4 0 198.4V0Z" fill="url(#paint0_linear_31_26)" fill-opacity="0.19"/>
<path d="M3840 0C3745 0 3626.67 10.8525 3520 25.6C3413.33 40.3475 3306.67 64.4129 3200 76.8C3093.33 89.1871 2986.67 89.8822 2880 96C2773.33 102.118 2655.17 107.245 2548.5 115.2C2441.83 123.155 2325.17 117.732 2218.5 98.9999C2125 86.2997 2027 12.8 1920 12.8V198.4C2026.67 198.4 2133.33 198.4 2240 198.4C2346.67 198.4 2453.33 198.4 2560 198.4C2666.67 198.4 2773.33 198.4 2880 198.4C2986.67 198.4 3093.33 198.4 3200 198.4C3306.67 198.4 3413.33 198.4 3520 198.4C3626.67 198.4 3733.33 198.4 3840 198.4V0Z" fill="url(#paint1_linear_31_26)" fill-opacity="0.19"/>
<defs>
<linearGradient id="paint0_linear_31_26" x1="0" y1="99.1999" x2="1920" y2="99.1999" gradientUnits="userSpaceOnUse">
<stop stop-color="#99C4F4"/>
<stop offset="0.5" stop-color="#ADBCF7"/>
<stop offset="1" stop-color="#C0B4FA"/>
</linearGradient>
<linearGradient id="paint1_linear_31_26" x1="3840" y1="99.1999" x2="1920" y2="99.1999" gradientUnits="userSpaceOnUse">
<stop stop-color="#99C4F4"/>
<stop offset="0.5" stop-color="#ADBCF7"/>
<stop offset="1" stop-color="#C0B4FA"/>
</linearGradient>
</defs>
</svg>
