<svg width="36" height="36" viewBox="0 0 36 36" fill="none" xmlns="http://www.w3.org/2000/svg">
<path d="M17.4375 23.2695C17.2625 23.2065 17.1 23.1 16.95 22.95L11.55 17.55C11.25 17.25 11.106 16.9 11.118 16.5C11.13 16.1 11.274 15.75 11.55 15.45C11.85 15.15 12.2065 14.994 12.6195 14.982C13.0325 14.97 13.3885 15.1135 13.6875 15.4125L16.5 18.225V7.50001C16.5 7.07501 16.644 6.71901 16.932 6.43201C17.22 6.14501 17.576 6.00101 18 6.00001C18.424 5.99901 18.7805 6.14301 19.0695 6.43201C19.3585 6.72101 19.502 7.07701 19.5 7.50001V18.225L22.3125 15.4125C22.6125 15.1125 22.969 14.9685 23.382 14.9805C23.795 14.9925 24.151 15.149 24.45 15.45C24.725 15.75 24.869 16.1 24.882 16.5C24.895 16.9 24.751 17.25 24.45 17.55L19.05 22.95C18.9 23.1 18.7375 23.2065 18.5625 23.2695C18.3875 23.3325 18.2 23.3635 18 23.3625C17.8 23.3615 17.6125 23.3305 17.4375 23.2695ZM9 30C8.175 30 7.469 29.7065 6.882 29.1195C6.295 28.5325 6.001 27.826 6 27V24C6 23.575 6.144 23.219 6.432 22.932C6.72 22.645 7.076 22.501 7.5 22.5C7.924 22.499 8.2805 22.643 8.5695 22.932C8.8585 23.221 9.002 23.577 9 24V27H27V24C27 23.575 27.144 23.219 27.432 22.932C27.72 22.645 28.076 22.501 28.5 22.5C28.924 22.499 29.2805 22.643 29.5695 22.932C29.8585 23.221 30.002 23.577 30 24V27C30 27.825 29.7065 28.5315 29.1195 29.1195C28.5325 29.7075 27.826 30.001 27 30H9Z" fill="#EAF5FF"/>
</svg>
