<svg width="161" height="161" viewBox="0 0 161 161" fill="none" xmlns="http://www.w3.org/2000/svg">
<path d="M80.5 5.66699C100.391 5.66699 119.468 13.5688 133.533 27.634C147.598 41.6992 155.5 60.7758 155.5 80.667C155.5 100.558 147.598 119.635 133.533 133.7C119.468 147.765 100.391 155.667 80.5 155.667C60.6088 155.667 41.5322 147.765 27.467 133.7C13.4018 119.635 5.5 100.558 5.5 80.667C5.5 60.7758 13.4018 41.6992 27.467 27.634C41.5322 13.5688 60.6088 5.66699 80.5 5.66699ZM71.1571 95.4634L54.4964 78.792C53.8991 78.1947 53.1901 77.7209 52.4097 77.3977C51.6293 77.0744 50.7929 76.9081 49.9482 76.9081C49.1035 76.9081 48.2671 77.0744 47.4867 77.3977C46.7064 77.7209 45.9973 78.1947 45.4 78.792C44.1937 79.9983 43.5161 81.6343 43.5161 83.3402C43.5161 85.0461 44.1937 86.6822 45.4 87.8884L66.6143 109.103C67.2099 109.703 67.9184 110.179 68.699 110.505C69.4796 110.83 70.3169 110.997 71.1625 110.997C72.0081 110.997 72.8454 110.83 73.626 110.505C74.4066 110.179 75.1151 109.703 75.7107 109.103L119.639 65.1634C120.245 64.5686 120.726 63.8599 121.056 63.078C121.386 62.2962 121.558 61.4568 121.562 60.6082C121.566 59.7596 121.402 58.9186 121.079 58.1338C120.756 57.3489 120.281 56.6357 119.682 56.0353C119.082 55.4349 118.369 54.9592 117.585 54.6355C116.8 54.3119 115.96 54.1468 115.111 54.1498C114.262 54.1527 113.423 54.3237 112.641 54.6527C111.858 54.9818 111.149 55.4624 110.554 56.067L71.1571 95.4634Z" fill="#1EB161"/>
</svg>
