<svg width="26" height="26" viewBox="0 0 26 26" fill="none" xmlns="http://www.w3.org/2000/svg">
<path d="M2 21.375C2 19.9826 2.55312 18.6473 3.53769 17.6627C4.52226 16.6781 5.85761 16.125 7.25 16.125H17.75C19.1424 16.125 20.4777 16.6781 21.4623 17.6627C22.4469 18.6473 23 19.9826 23 21.375C23 22.0712 22.7234 22.7389 22.2312 23.2312C21.7389 23.7234 21.0712 24 20.375 24H4.625C3.92881 24 3.26113 23.7234 2.76884 23.2312C2.27656 22.7389 2 22.0712 2 21.375Z" stroke="#0A2745" stroke-width="2.30881" stroke-linejoin="round"/>
<path d="M12.5 10.875C14.6746 10.875 16.4375 9.11212 16.4375 6.9375C16.4375 4.76288 14.6746 3 12.5 3C10.3254 3 8.5625 4.76288 8.5625 6.9375C8.5625 9.11212 10.3254 10.875 12.5 10.875Z" stroke="#0A2745" stroke-width="2.30881"/>
</svg>
