<svg width="30" height="30" viewBox="0 0 30 30" fill="none" xmlns="http://www.w3.org/2000/svg">
<path d="M14.75 20C14.1977 20 13.75 19.5523 13.75 19V12.2267C13.75 11.3358 12.6729 10.8896 12.0429 11.5196L11.2196 12.3429C10.8242 12.7383 10.1815 12.7326 9.79311 12.3304L9.43252 11.9569C9.05365 11.5645 9.05912 10.9409 9.44481 10.5552L14.2929 5.70711C14.6834 5.31658 15.3166 5.31658 15.7071 5.70711L20.5552 10.5552C20.9409 10.9409 20.9463 11.5645 20.5675 11.9569L20.2069 12.3304C19.8185 12.7326 19.1758 12.7383 18.7804 12.3429L17.9571 11.5196C17.3271 10.8896 16.25 11.3358 16.25 12.2267V19C16.25 19.5523 15.8023 20 15.25 20H14.75ZM7.5 25C6.8125 25 6.22417 24.7554 5.735 24.2663C5.24583 23.7771 5.00083 23.1883 5 22.5V19.75C5 19.1977 5.44772 18.75 6 18.75H6.5C7.05228 18.75 7.5 19.1977 7.5 19.75V21.5C7.5 22.0523 7.94772 22.5 8.5 22.5H21.5C22.0523 22.5 22.5 22.0523 22.5 21.5V19.75C22.5 19.1977 22.9477 18.75 23.5 18.75H24C24.5523 18.75 25 19.1977 25 19.75V22.5C25 23.1875 24.7554 23.7763 24.2663 24.2663C23.7771 24.7563 23.1883 25.0008 22.5 25H7.5Z" fill="#0A2745" fill-opacity="0.7"/>
</svg>
