<svg width="60" height="60" viewBox="0 0 60 60" fill="none" xmlns="http://www.w3.org/2000/svg">
<path d="M30 33.5L17.75 45.75C17.2917 46.2083 16.7083 46.4375 16 46.4375C15.2917 46.4375 14.7083 46.2083 14.25 45.75C13.7917 45.2917 13.5625 44.7083 13.5625 44C13.5625 43.2917 13.7917 42.7083 14.25 42.25L26.5 30L14.25 17.75C13.7917 17.2917 13.5625 16.7083 13.5625 16C13.5625 15.2917 13.7917 14.7083 14.25 14.25C14.7083 13.7917 15.2917 13.5625 16 13.5625C16.7083 13.5625 17.2917 13.7917 17.75 14.25L30 26.5L42.25 14.25C42.7083 13.7917 43.2917 13.5625 44 13.5625C44.7083 13.5625 45.2917 13.7917 45.75 14.25C46.2083 14.7083 46.4375 15.2917 46.4375 16C46.4375 16.7083 46.2083 17.2917 45.75 17.75L33.5 30L45.75 42.25C46.2083 42.7083 46.4375 43.2917 46.4375 44C46.4375 44.7083 46.2083 45.2917 45.75 45.75C45.2917 46.2083 44.7083 46.4375 44 46.4375C43.2917 46.4375 42.7083 46.2083 42.25 45.75L30 33.5Z" fill="url(#paint0_linear_683_1312)"/>
<defs>
<linearGradient id="paint0_linear_683_1312" x1="23.3467" y1="4.41272" x2="65.5723" y2="23.5895" gradientUnits="userSpaceOnUse">
<stop stop-color="#0C4076"/>
<stop offset="1" stop-color="#4489D4"/>
</linearGradient>
</defs>
</svg>
