<svg width="26" height="26" viewBox="0 0 26 26" fill="none" xmlns="http://www.w3.org/2000/svg">
<path d="M17.3981 25.3586C15.965 25.3586 14.5641 24.9337 13.3726 24.1375C12.181 23.3413 11.2523 22.2097 10.7039 20.8857C10.1555 19.5617 10.012 18.1049 10.2916 16.6993C10.5711 15.2938 11.2612 14.0027 12.2746 12.9894C13.2879 11.9761 14.579 11.286 15.9845 11.0064C17.39 10.7268 18.8469 10.8703 20.1709 11.4187C21.4949 11.9671 22.6265 12.8959 23.4227 14.0874C24.2188 15.279 24.6438 16.6798 24.6438 18.1129C24.6438 20.0346 23.8804 21.8776 22.5216 23.2364C21.1627 24.5952 19.3197 25.3586 17.3981 25.3586ZM17.3981 12.6786C16.3233 12.6786 15.2726 12.9973 14.3789 13.5945C13.4853 14.1916 12.7887 15.0403 12.3774 16.0333C11.9661 17.0263 11.8585 18.1189 12.0682 19.1731C12.2779 20.2272 12.7954 21.1955 13.5554 21.9555C14.3154 22.7155 15.2837 23.2331 16.3379 23.4428C17.392 23.6525 18.4847 23.5448 19.4777 23.1335C20.4707 22.7222 21.3194 22.0257 21.9165 21.132C22.5136 20.2384 22.8324 19.1877 22.8324 18.1129C22.8324 16.6716 22.2598 15.2894 21.2407 14.2703C20.2216 13.2512 18.8393 12.6786 17.3981 12.6786Z" fill="#0A2745"/>
<path d="M18.838 20.8322L16.4922 18.4864V14.4922H18.3036V17.7437L20.115 19.5551L18.838 20.8322Z" fill="#0A2745"/>
<path d="M23.7371 3.62286C23.7371 3.14244 23.5463 2.68169 23.2066 2.34198C22.8669 2.00228 22.4061 1.81143 21.9257 1.81143H18.3029V0H16.4914V1.81143H9.24572V0H7.43429V1.81143H3.81143C3.33101 1.81143 2.87026 2.00228 2.53056 2.34198C2.19085 2.68169 2 3.14244 2 3.62286V21.7372C2 22.2176 2.19085 22.6783 2.53056 23.018C2.87026 23.3577 3.33101 23.5486 3.81143 23.5486H7.43429V21.7372H3.81143V3.62286H7.43429V5.43429H9.24572V3.62286H16.4914V5.43429H18.3029V3.62286H21.9257V9.05715H23.7371V3.62286Z" fill="#0A2745"/>
</svg>
