<svg width="19" height="19" viewBox="0 0 19 19" fill="none" xmlns="http://www.w3.org/2000/svg">
<path d="M7.91797 2.44434L8.23438 2.42383L8.17969 2.78613H8.27148V9.48438C8.27152 9.70475 8.35888 9.91638 8.51465 10.0723C8.67043 10.2281 8.88221 10.3153 9.10254 10.3154H16.1562C16.1134 14.6025 12.6263 18.0645 8.3291 18.0645C4.00531 18.0644 0.5 14.5592 0.5 10.2354C0.500078 6.0495 3.7853 2.62989 7.91797 2.41602V2.44434ZM16.1777 10.0107V10.0098C16.1785 10.0071 16.1794 10.005 16.1797 10.0039L16.1807 10.0029C16.1806 10.0031 16.179 10.0063 16.1777 10.0107Z" stroke="white"/>
<path d="M10.5381 0.506836C14.6299 0.656601 17.9163 3.94352 18.0664 8.03516L17.6943 7.97949V8.07031H10.5039V0.879883H10.5947L10.5381 0.506836Z" stroke="white"/>
</svg>
