<svg width="30" height="30" viewBox="0 0 30 30" fill="none" xmlns="http://www.w3.org/2000/svg">
<rect width="30" height="30" rx="7" fill="#105EA9" fill-opacity="0.6"/>
<rect width="30" height="30" rx="7" fill="url(#paint0_linear_688_1697)"/>
<path d="M15 6C10.0388 6 6 9.442 6 13.6721C6 17.4608 9.2025 20.6351 13.5262 21.2386C13.8195 21.3035 14.2185 21.442 14.3197 21.7034C14.4097 21.9406 14.379 22.3068 14.3482 22.5541L14.2253 23.3571C14.1915 23.5943 14.0452 24.2908 15.012 23.865C15.9802 23.4409 20.199 20.6531 22.089 18.3718C23.382 16.8848 24 15.361 24 13.6721C24 9.442 19.9613 6 15 6ZM11.4773 16.1875H9.68775C9.429 16.1875 9.21525 15.9629 9.21525 15.6921V11.9347C9.21525 11.6631 9.429 11.4385 9.68775 11.4385C9.94875 11.4385 10.1602 11.6631 10.1602 11.9347V15.1959H11.4773C11.7382 15.1959 11.949 15.4189 11.949 15.6921C11.949 15.9629 11.7375 16.1875 11.4773 16.1875ZM13.3267 15.6921C13.3267 15.9629 13.1152 16.1875 12.8535 16.1875C12.5947 16.1875 12.3832 15.9629 12.3832 15.6921V11.9347C12.3832 11.6631 12.5947 11.4385 12.8558 11.4385C13.1152 11.4385 13.3267 11.6631 13.3267 11.9347V15.6921ZM17.6325 15.6921C17.6325 15.9049 17.502 16.0936 17.3085 16.1616C17.2605 16.1781 17.2087 16.1859 17.1593 16.1859C17.001 16.1859 16.866 16.1147 16.7768 15.9887L14.9445 13.3763V15.6913C14.9445 15.9621 14.7353 16.1867 14.4713 16.1867C14.2118 16.1867 14.0017 15.9621 14.0017 15.6913V11.9347C14.0017 11.7218 14.1315 11.5332 14.3243 11.4659C14.3693 11.4479 14.4263 11.44 14.4698 11.44C14.616 11.44 14.751 11.5222 14.841 11.6404L16.6875 14.263V11.9347C16.6875 11.6631 16.899 11.4385 17.16 11.4385C17.4187 11.4385 17.6325 11.6631 17.6325 11.9347V15.6921ZM20.5238 13.3168C20.7855 13.3168 20.9963 13.5414 20.9963 13.8138C20.9963 14.0853 20.7855 14.3099 20.5238 14.3099H19.2075V15.1959H20.5238C20.7855 15.1959 20.9963 15.4189 20.9963 15.6921C20.9963 15.9629 20.7855 16.1875 20.5238 16.1875H18.7343C18.4755 16.1875 18.264 15.9629 18.264 15.6921V11.9347C18.264 11.6631 18.4755 11.4385 18.7365 11.4385H20.526C20.7855 11.4385 20.9963 11.6631 20.9963 11.9347C20.9963 12.2094 20.7855 12.4309 20.5238 12.4309H19.2075V13.3168H20.5238Z" fill="#EAF5FF"/>
<defs>
<linearGradient id="paint0_linear_688_1697" x1="17.5" y1="3.5" x2="30" y2="30" gradientUnits="userSpaceOnUse">
<stop stop-color="#0A2745"/>
<stop offset="1" stop-color="#0A2745" stop-opacity="0.7"/>
</linearGradient>
</defs>
</svg>
