<svg width="60" height="60" viewBox="0 0 60 60" fill="none" xmlns="http://www.w3.org/2000/svg">
<path d="M10 45C9.29168 45 8.69834 44.76 8.22001 44.28C7.74168 43.8 7.50168 43.2067 7.50001 42.5C7.49834 41.7933 7.73834 41.2 8.22001 40.72C8.70168 40.24 9.29501 40 10 40H50C50.7083 40 51.3025 40.24 51.7825 40.72C52.2625 41.2 52.5017 41.7933 52.5 42.5C52.4983 43.2067 52.2583 43.8008 51.78 44.2825C51.3017 44.7642 50.7083 45.0033 50 45H10ZM10 32.5C9.29168 32.5 8.69834 32.26 8.22001 31.78C7.74168 31.3 7.50168 30.7067 7.50001 30C7.49834 29.2933 7.73834 28.7 8.22001 28.22C8.70168 27.74 9.29501 27.5 10 27.5H50C50.7083 27.5 51.3025 27.74 51.7825 28.22C52.2625 28.7 52.5017 29.2933 52.5 30C52.4983 30.7067 52.2583 31.3008 51.78 31.7825C51.3017 32.2642 50.7083 32.5033 50 32.5H10ZM10 20C9.29168 20 8.69834 19.76 8.22001 19.28C7.74168 18.8 7.50168 18.2067 7.50001 17.5C7.49834 16.7933 7.73834 16.2 8.22001 15.72C8.70168 15.24 9.29501 15 10 15H50C50.7083 15 51.3025 15.24 51.7825 15.72C52.2625 16.2 52.5017 16.7933 52.5 17.5C52.4983 18.2067 52.2583 18.8008 51.78 19.2825C51.3017 19.7642 50.7083 20.0033 50 20H10Z" fill="url(#paint0_linear_1287_286)"/>
<defs>
<linearGradient id="paint0_linear_1287_286" x1="20.8929" y1="6.65038" x2="68.5139" y2="39.0911" gradientUnits="userSpaceOnUse">
<stop stop-color="#0C4076"/>
<stop offset="1" stop-color="#4489D4"/>
</linearGradient>
</defs>
</svg>
